<?xml version="1.0" standalone="no"?>
<!DOCTYPE svg PUBLIC "-//W3C//DTD SVG 20010904//EN"
 "http://www.w3.org/TR/2001/REC-SVG-20010904/DTD/svg10.dtd">
<svg version="1.0" xmlns="http://www.w3.org/2000/svg"
 width="32.000000pt" height="32.000000pt" viewBox="0 0 32.000000 32.000000"
 preserveAspectRatio="xMidYMid meet">

<g transform="translate(0.000000,32.000000) scale(0.100000,-0.100000)"
fill="#000000" stroke="none">
<path d="M36 279 c-34 -40 -34 -87 -2 -122 25 -27 56 -35 146 -40 41 -1 55 -6
55 -17 0 -11 -15 -16 -62 -18 l-63 -3 0 -34 0 -35 74 0 c71 0 75 2 100 31 35
41 34 80 -3 121 -27 30 -34 32 -112 38 -66 4 -84 8 -84 20 0 11 15 16 63 18
l62 3 0 34 0 35 -74 0 c-71 0 -75 -2 -100 -31z"/>
<path d="M240 274 c0 -32 2 -35 26 -32 55 6 59 68 4 68 -28 0 -30 -3 -30 -36z"/>
<path d="M20 65 c-21 -25 -8 -50 28 -53 31 -3 32 -2 32 32 0 31 -3 36 -24 36
-13 0 -29 -7 -36 -15z"/>
</g>
</svg>
